<svg xmlns="http://www.w3.org/2000/svg" viewBox="0 0 80 60" width="80" height="60">
  <g transform="rotate(-12, 40, 30)">
    <ellipse cx="38" cy="34" rx="22" ry="13" fill="#C0392B"/>
    <ellipse cx="57" cy="22" rx="12" ry="10" fill="#C0392B"/>
    <ellipse cx="67" cy="25" rx="5" ry="4" fill="#A03020"/>
    <ellipse cx="69" cy="24" rx="1.5" ry="1" fill="#E07070"/>
    <ellipse cx="62" cy="19" rx="2.5" ry="2.5" fill="#F5ECD7"/>
    <ellipse cx="62.5" cy="19" rx="1.2" ry="1.2" fill="#2D1010"/>
    <ellipse cx="63" cy="18.5" rx="0.4" ry="0.4" fill="white"/>
    <polygon points="56,13 59,8 62,13" fill="#A03020"/>
    <path d="M52,14 Q48,18 45,22 Q49,18 53,14Z" fill="#6D1010"/>
    <path d="M56,12 Q52,17 50,21 Q54,16 57,12Z" fill="#8B1A1A"/>
    <path d="M50,44 Q52,52 50,58" stroke="#A03020" stroke-width="5" fill="none" stroke-linecap="round"/>
    <path d="M42,46 Q40,54 38,58" stroke="#C0392B" stroke-width="5" fill="none" stroke-linecap="round"/>
    <path d="M28,44 Q26,50 24,54" stroke="#A03020" stroke-width="5" fill="none" stroke-linecap="round"/>
    <path d="M22,42 Q20,48 22,54" stroke="#C0392B" stroke-width="5" fill="none" stroke-linecap="round"/>
    <path d="M18,28 Q8,30 4,36 Q10,32 18,30Z" fill="#6D1010"/>
    <path d="M18,32 Q6,36 2,44 Q10,38 18,34Z" fill="#8B1A1A"/>
  </g>
</svg>
